<mxfile host="app.diagrams.net" modified="2024-04-08T02:28:27.387Z" agent="Mozilla/5.0 (Windows NT 10.0; Win64; x64) AppleWebKit/537.36 (KHTML, like Gecko) Chrome/123.0.0.0 Safari/537.36 Edg/123.0.0.0" version="24.2.1" etag="KzaHT3YDz58ja2O5xWyy" type="github">
  <diagram name="Page-1" id="BmIRiZmIaBTDa1WQPy1L">
    <mxGraphModel>
      <root>
        <mxCell id="0" />
        <mxCell id="1" parent="0" />
      </root>
    </mxGraphModel>
  </diagram>
</mxfile>
